<svg xmlns="http://www.w3.org/2000/svg" width="118.101" height="30.718" viewBox="0 0 118.101 30.718"><path d="M5.958 4.3h2.257l5.043 13.86h-3.021l-.926-2.862h-5.4l-.885 2.862H.003L4.596 5.226a1.353 1.353 0 011.37-.926m.645 2.779l-1.934 5.883h3.869zm14.932 10.435v-.686a3.077 3.077 0 01-1.954 1.41 4 4 0 01-2.437-.2 4.505 4.505 0 01-2.075-1.793 6.136 6.136 0 01-.867-3.443 6.646 6.646 0 011.148-4.049 4.288 4.288 0 013.687-1.551A6.572 6.572 0 0122.63 8.25q1.652 1.047 1.651 3.868v5.681q0 2.82-1.651 3.848a6.671 6.671 0 01-3.585 1.027 4.266 4.266 0 01-4.594-3.464h2.941a2.247 2.247 0 002.317 1.029 2.194 2.194 0 001.209-.788 3.277 3.277 0 00.625-1.936m-4.593-4.632q0 2.778 1.613 3.081a2.195 2.195 0 002.377-.745 3.009 3.009 0 00.523-1.39 5.867 5.867 0 00.02-1.876 3.768 3.768 0 00-.665-1.652 1.772 1.772 0 00-1.528-.724 1.855 1.855 0 00-1.852 1.007 5.245 5.245 0 00-.487 2.3m9.37 5.275v-5.2a6.657 6.657 0 01.463-2.639 4.366 4.366 0 011.27-1.713 4.984 4.984 0 011.792-.886 8.014 8.014 0 012.114-.278h.4v2.859h-.926a2.361 2.361 0 00-1.731.565 2.425 2.425 0 00-.564 1.772v5.521zm8.716-.968a3.974 3.974 0 01-1.209-1.953 8.985 8.985 0 01-.362-2.558 8.079 8.079 0 01.3-2.175 4.47 4.47 0 01.946-1.814 4.174 4.174 0 012.7-1.429 6.23 6.23 0 012.982.261 4.114 4.114 0 012.256 2.1 6.692 6.692 0 01.683 3.1 7.64 7.64 0 01-.281 2.216 5.68 5.68 0 01-.726 1.571 4.025 4.025 0 01-2.458 1.652 5.485 5.485 0 01-2.679.06 4.675 4.675 0 01-2.154-1.029m1.934-7.09a3.713 3.713 0 00-.764 2.76 4.392 4.392 0 00.686 2.558 1.781 1.781 0 00.845.544 1.93 1.93 0 001.23.041 2.065 2.065 0 001.112-.907 4.569 4.569 0 00.524-2.337 4.1 4.1 0 00-.465-2.175 2.1 2.1 0 00-1.068-.926 1.936 1.936 0 00-1.207-.021 2.09 2.09 0 00-.887.463m15.817 4.751h2.016a4.4 4.4 0 01-1.694 2.58 5.131 5.131 0 01-3.142.926 4.486 4.486 0 01-3.585-1.491 6.051 6.051 0 01-1.29-4.15 5.97 5.97 0 011.251-4.029 4.487 4.487 0 013.586-1.491 4.835 4.835 0 013.747 1.451 5.532 5.532 0 011.047 2.055h-2.82a2.341 2.341 0 00-.4-.6 1.931 1.931 0 00-1.49-.564 1.968 1.968 0 00-1.451.564 3.94 3.94 0 00-.725 2.659 3.774 3.774 0 00.725 2.619 1.908 1.908 0 001.572.644 2.279 2.279 0 001.168-.283.534.534 0 00.221-.139l.223-.221a1.694 1.694 0 01.322-.322 1.112 1.112 0 01.724-.2M56.93 4.3h1.45a1.355 1.355 0 01.967.383 1.252 1.252 0 01.4.946v12.529h-2.819zm5.609 0h1.451a1.374 1.374 0 011.369 1.369v.846h-2.82zm0 3.144h1.451a1.373 1.373 0 011.369 1.369v9.345h-2.82zM76.89 18.157h-2.778v-6.849a1.665 1.665 0 00-.584-1.411 2.112 2.112 0 00-1.31-.442 2.024 2.024 0 00-1.289.442 1.685 1.685 0 00-.564 1.411v6.849h-2.82v-6.284q0-2.739 1.431-3.667a6.252 6.252 0 013.163-1.007 8.2 8.2 0 011.812.2 3.805 3.805 0 011.612.806 3.545 3.545 0 011.432-.745 8 8 0 011.711-.262 6.075 6.075 0 013.266.927q1.489.927 1.49 3.747v6.285h-1.41a1.31 1.31 0 01-1.369-1.252v-5.597a1.659 1.659 0 00-.584-1.411 2.154 2.154 0 00-2.619 0 1.66 1.66 0 00-.584 1.411v6.849zm15.742-.441a4.982 4.982 0 01-1.793.544 16.247 16.247 0 01-1.671.1 4.225 4.225 0 01-2.538-.786 2.987 2.987 0 01-1.088-2.6 2.8 2.8 0 01.985-2.417 5.716 5.716 0 012.519-.967 2.288 2.288 0 00.488-.06c.186-.039.4-.073.644-.1q1.77-.24 1.772-1.047a.766.766 0 00-.625-.786 4.181 4.181 0 00-1.148-.181 2.944 2.944 0 00-1.007.161 1.092 1.092 0 00-.645.6h-2.7a3.111 3.111 0 011.13-2.055 4.641 4.641 0 013.1-.927 6.069 6.069 0 013.384.764 2.582 2.582 0 011.167 2.256v3.67a4.615 4.615 0 01-.584 2.517 3.567 3.567 0 01-1.389 1.31m-.644-4.956a7.717 7.717 0 01-1.571.525l-.928.2a2.363 2.363 0 00-1.047.524 1.618 1.618 0 00-.282.886 1.3 1.3 0 00.362.967 1.523 1.523 0 001.047.321 2.229 2.229 0 002.418-2.417zm4.579-.965S97.625-.657 112.561.027c0 0-.435 11.017-15.993 11.764m10.205.058s3.3-5.724 11.328-1.058c0 0-2.24 5.415-11.328 1.058m-8.836 3.925s4.3-4.605 10.331.56c0 0-3.984 4.542-10.331-.56" fill="#fff"/><text transform="translate(29.177 28.718)" style="isolation:isolate" font-size="9" font-family="Roboto-Italic,Roboto" font-style="italic" fill="#fff"><tspan x="0" y="0">by Climatempo</tspan></text></svg>